<?xml version="1.0" encoding="utf-8"?>
<!-- Generator: Adobe Illustrator 26.5.0, SVG Export Plug-In . SVG Version: 6.00 Build 0)  -->
<svg version="1.1" id="Layer_1" xmlns="http://www.w3.org/2000/svg" xmlns:xlink="http://www.w3.org/1999/xlink" x="0px" y="0px"
	 width="1213.2px" height="600px" viewBox="0 0 1213.2 600" style="enable-background:new 0 0 1213.2 600;" xml:space="preserve">
<style type="text/css">
	.st0{fill:none;stroke:#000000;stroke-width:0.2835;stroke-linecap:round;stroke-linejoin:round;stroke-miterlimit:11.3386;}
</style>
<path class="st0" d="M167.3,596.5H190c0.2,0,0.3-0.1,0.3-0.3V588c0-0.3-0.3,0,0,0h16.4c0.3,0,0-0.3,0,0v8.2c0,0.2,0.1,0.3,0.3,0.3
	h17c0.2,0,0.3-0.1,0.3-0.3V588c0-0.3-0.3,0,0,0h16.4c0.3,0,0-0.3,0,0v8.2c0,0.2,0.1,0.3,0.3,0.3h17c0.2,0,0.3-0.1,0.3-0.3V588
	c0-0.3-0.3,0,0,0h16.4c0.3,0,0-0.3,0,0v8.2c0,0.2,0.1,0.3,0.3,0.3h17c0.2,0,0.3-0.1,0.3-0.3V588c0-0.3-0.3,0,0,0h16.4
	c0.3,0,0-0.3,0,0v8.2c0,0.2,0.1,0.3,0.3,0.3h17c0.2,0,0.3-0.1,0.3-0.3V588c0-0.3-0.3,0,0,0h16.4c0.3,0,0-0.3,0,0v8.2
	c0,0.2,0.1,0.3,0.3,0.3h17c0.2,0,0.3-0.1,0.3-0.3V588c0-0.3-0.3,0,0,0h16.4c0.3,0,0-0.3,0,0v8.2c0,0.2,0.1,0.3,0.3,0.3h17
	c0.2,0,0.3-0.1,0.3-0.3V588c0-0.3-0.3,0,0,0h16.4c0.3,0,0-0.3,0,0v8.2c0,0.2,0.1,0.3,0.3,0.3h22.7h8.5c0.2,0,0.3-0.1,0.3-0.3v-8.5
	v-19.8c0-0.2-0.1-0.3-0.3-0.3h-8.2c-0.3,0,0,0.3,0,0v-16.4c0-0.3-0.3,0,0,0h8.2c0.2,0,0.3-0.1,0.3-0.3v-17c0-0.2-0.1-0.3-0.3-0.3
	h-8.2c-0.3,0,0,0.3,0,0v-16.4c0-0.3-0.3,0,0,0h8.2c0.2,0,0.3-0.1,0.3-0.3v-17c0-0.2-0.1-0.3-0.3-0.3h-8.2c-0.3,0,0,0.3,0,0v-16.4
	c0-0.3-0.3,0,0,0h8.2c0.2,0,0.3-0.1,0.3-0.3V463v-8.5c0-0.2-0.1-0.3-0.3-0.3h-8.5h-22.7c-0.2,0-0.3,0.1-0.3,0.3v8.2c0,0.3,0.3,0,0,0
	h-16.4c-0.3,0,0,0.3,0,0v-8.2c0-0.2-0.1-0.3-0.3-0.3h-17c-0.2,0-0.3,0.1-0.3,0.3v8.2c0,0.3,0.3,0,0,0h-16.4c-0.3,0,0,0.3,0,0v-8.2
	c0-0.2-0.1-0.3-0.3-0.3h-17c-0.2,0-0.3,0.1-0.3,0.3v8.2c0,0.3,0.3,0,0,0h-16.4c-0.3,0,0,0.3,0,0v-8.2c0-0.2-0.1-0.3-0.3-0.3h-17
	c-0.2,0-0.3,0.1-0.3,0.3v8.2c0,0.3,0.3,0,0,0h-16.4c-0.3,0,0,0.3,0,0v-8.2c0-0.2-0.1-0.3-0.3-0.3h-17c-0.2,0-0.3,0.1-0.3,0.3v8.2
	c0,0.3,0.3,0,0,0h-16.4c-0.3,0,0,0.3,0,0v-8.2c0-0.2-0.1-0.3-0.3-0.3h-17c-0.2,0-0.3,0.1-0.3,0.3v8.2c0,0.3,0.3,0,0,0h-16.4
	c-0.3,0,0,0.3,0,0v-8.2c0-0.2-0.1-0.3-0.3-0.3h-17c-0.2,0-0.3,0.1-0.3,0.3v8.2c0,0.3,0.3,0,0,0h-16.4c-0.3,0,0,0.3,0,0v-8.2
	c0-0.2-0.1-0.3-0.3-0.3h-22.7h-8.5c-0.2,0-0.3,0.1-0.3,0.3v8.5v19.8c0,0.2,0.1,0.3,0.3,0.3h8.2c0.3,0,0-0.3,0,0v16.4
	c0,0.3,0.3,0,0,0h-8.2c-0.2,0-0.3,0.1-0.3,0.3v17c0,0.2,0.1,0.3,0.3,0.3h8.2c0.3,0,0-0.3,0,0v16.4c0,0.3,0.3,0,0,0h-8.2
	c-0.2,0-0.3,0.1-0.3,0.3v17c0,0.2,0.1,0.3,0.3,0.3h8.2c0.3,0,0-0.3,0,0v16.4c0,0.3,0.3,0,0,0h-8.2c-0.2,0-0.3,0.1-0.3,0.3v19.8v8.5
	c0,0.2,0.1,0.3,0.3,0.3H167.3"/>
<path class="st0" d="M455.6,596.5h22.7c0.2,0,0.3-0.1,0.3-0.3V588c0-0.3-0.3,0,0,0H495c0.3,0,0-0.3,0,0v8.2c0,0.2,0.1,0.3,0.3,0.3
	h17c0.2,0,0.3-0.1,0.3-0.3V588c0-0.3-0.3,0,0,0H529c0.3,0,0-0.3,0,0v8.2c0,0.2,0.1,0.3,0.3,0.3h17c0.2,0,0.3-0.1,0.3-0.3V588
	c0-0.3-0.3,0,0,0h16.4c0.3,0,0-0.3,0,0v8.2c0,0.2,0.1,0.3,0.3,0.3h17c0.2,0,0.3-0.1,0.3-0.3V588c0-0.3-0.3,0,0,0h16.4
	c0.3,0,0-0.3,0,0v8.2c0,0.2,0.1,0.3,0.3,0.3h17c0.2,0,0.3-0.1,0.3-0.3V588c0-0.3-0.3,0,0,0h16.4c0.3,0,0-0.3,0,0v8.2
	c0,0.2,0.1,0.3,0.3,0.3h17c0.2,0,0.3-0.1,0.3-0.3V588c0-0.3-0.3,0,0,0h16.4c0.3,0,0-0.3,0,0v8.2c0,0.2,0.1,0.3,0.3,0.3h17
	c0.2,0,0.3-0.1,0.3-0.3V588c0-0.3-0.3,0,0,0h16.4c0.3,0,0-0.3,0,0v8.2c0,0.2,0.1,0.3,0.3,0.3h22.7c0.2,0,0.3-0.1,0.3-0.3v-8.5v-19.6
	c0-0.3-0.3,0,0,0h8.2c0.2,0,0.3-0.1,0.3-0.3v-17c0-0.2-0.1-0.3-0.3-0.3h-8.2c-0.3,0,0,0.3,0,0v-16.4c0-0.3-0.3,0,0,0h8.2
	c0.2,0,0.3-0.1,0.3-0.3v-17c0-0.2-0.1-0.3-0.3-0.3h-8.2c-0.3,0,0,0.3,0,0v-16.4c0-0.3-0.3,0,0,0h8.2c0.2,0,0.3-0.1,0.3-0.3v-17
	c0-0.2-0.1-0.3-0.3-0.3h-8.2c-0.3,0,0,0.3,0,0V463v-8.5c0-0.2-0.1-0.3-0.3-0.3h-22.7c-0.2,0-0.3,0.1-0.3,0.3v8.2c0,0.3,0.3,0,0,0
	h-16.4c-0.3,0,0,0.3,0,0v-8.2c0-0.2-0.1-0.3-0.3-0.3h-17c-0.2,0-0.3,0.1-0.3,0.3v8.2c0,0.3,0.3,0,0,0h-16.4c-0.3,0,0,0.3,0,0v-8.2
	c0-0.2-0.1-0.3-0.3-0.3h-17c-0.2,0-0.3,0.1-0.3,0.3v8.2c0,0.3,0.3,0,0,0h-16.4c-0.3,0,0,0.3,0,0v-8.2c0-0.2-0.1-0.3-0.3-0.3h-17
	c-0.2,0-0.3,0.1-0.3,0.3v8.2c0,0.3,0.3,0,0,0h-16.4c-0.3,0,0,0.3,0,0v-8.2c0-0.2-0.1-0.3-0.3-0.3h-17c-0.2,0-0.3,0.1-0.3,0.3v8.2
	c0,0.3,0.3,0,0,0h-16.4c-0.3,0,0,0.3,0,0v-8.2c0-0.2-0.1-0.3-0.3-0.3h-17c-0.2,0-0.3,0.1-0.3,0.3v8.2c0,0.3,0.3,0,0,0h-16.4
	c-0.3,0,0,0.3,0,0v-8.2c0-0.2-0.1-0.3-0.3-0.3h-17c-0.2,0-0.3,0.1-0.3,0.3v8.2c0,0.3,0.3,0,0,0h-16.4c-0.3,0,0,0.3,0,0v-8.2
	c0-0.2-0.1-0.3-0.3-0.3h-22.7c-0.2,0-0.3,0.1-0.3,0.3v8.5v19.6c0,0.3,0.3,0,0,0h-8.2c-0.2,0-0.3,0.1-0.3,0.3v17
	c0,0.2,0.1,0.3,0.3,0.3h8.2c0.3,0,0-0.3,0,0v16.4c0,0.3,0.3,0,0,0h-8.2c-0.2,0-0.3,0.1-0.3,0.3v17c0,0.2,0.1,0.3,0.3,0.3h8.2
	c0.3,0,0-0.3,0,0v16.4c0,0.3,0.3,0,0,0h-8.2c-0.2,0-0.3,0.1-0.3,0.3v17c0,0.2,0.1,0.3,0.3,0.3h8.2c0.3,0,0-0.3,0,0v19.6v8.5
	C455.3,596.4,455.5,596.5,455.6,596.5"/>
<path class="st0" d="M455.6,450h22.7c0.2,0,0.3-0.1,0.3-0.3v-8.2c0-0.3-0.3,0,0,0H495c0.3,0,0-0.3,0,0v8.2c0,0.2,0.1,0.3,0.3,0.3h17
	c0.2,0,0.3-0.1,0.3-0.3v-8.2c0-0.3-0.3,0,0,0H529c0.3,0,0-0.3,0,0v8.2c0,0.2,0.1,0.3,0.3,0.3h17c0.2,0,0.3-0.1,0.3-0.3v-8.2
	c0-0.3-0.3,0,0,0h16.4c0.3,0,0-0.3,0,0v8.2c0,0.2,0.1,0.3,0.3,0.3h17c0.2,0,0.3-0.1,0.3-0.3v-8.2c0-0.3-0.3,0,0,0h16.4
	c0.3,0,0-0.3,0,0v8.2c0,0.2,0.1,0.3,0.3,0.3h17c0.2,0,0.3-0.1,0.3-0.3v-8.2c0-0.3-0.3,0,0,0h16.4c0.3,0,0-0.3,0,0v8.2
	c0,0.2,0.1,0.3,0.3,0.3h17c0.2,0,0.3-0.1,0.3-0.3v-8.2c0-0.3-0.3,0,0,0h16.4c0.3,0,0-0.3,0,0v8.2c0,0.2,0.1,0.3,0.3,0.3h17
	c0.2,0,0.3-0.1,0.3-0.3v-8.2c0-0.3-0.3,0,0,0h16.4c0.3,0,0-0.3,0,0v8.2c0,0.2,0.1,0.3,0.3,0.3h22.7c0.2,0,0.3-0.1,0.3-0.3v-8.5
	v-19.6c0-0.3-0.3,0,0,0h8.2c0.2,0,0.3-0.1,0.3-0.3v-17c0-0.2-0.1-0.3-0.3-0.3h-8.2c-0.3,0,0,0.3,0,0v-16.4c0-0.3-0.3,0,0,0h8.2
	c0.2,0,0.3-0.1,0.3-0.3v-17c0-0.2-0.1-0.3-0.3-0.3h-8.2c-0.3,0,0,0.3,0,0v-16.4c0-0.3-0.3,0,0,0h8.2c0.2,0,0.3-0.1,0.3-0.3v-17
	c0-0.2-0.1-0.3-0.3-0.3h-8.2c-0.3,0,0,0.3,0,0v-19.6V308c0-0.2-0.1-0.3-0.3-0.3h-22.7c-0.2,0-0.3,0.1-0.3,0.3v8.2c0,0.3,0.3,0,0,0
	h-16.4c-0.3,0,0,0.3,0,0V308c0-0.2-0.1-0.3-0.3-0.3h-17c-0.2,0-0.3,0.1-0.3,0.3v8.2c0,0.3,0.3,0,0,0h-16.4c-0.3,0,0,0.3,0,0V308
	c0-0.2-0.1-0.3-0.3-0.3h-17c-0.2,0-0.3,0.1-0.3,0.3v8.2c0,0.3,0.3,0,0,0h-16.4c-0.3,0,0,0.3,0,0V308c0-0.2-0.1-0.3-0.3-0.3h-17
	c-0.2,0-0.3,0.1-0.3,0.3v8.2c0,0.3,0.3,0,0,0h-16.4c-0.3,0,0,0.3,0,0V308c0-0.2-0.1-0.3-0.3-0.3h-17c-0.2,0-0.3,0.1-0.3,0.3v8.2
	c0,0.3,0.3,0,0,0h-16.4c-0.3,0,0,0.3,0,0V308c0-0.2-0.1-0.3-0.3-0.3h-17c-0.2,0-0.3,0.1-0.3,0.3v8.2c0,0.3,0.3,0,0,0h-16.4
	c-0.3,0,0,0.3,0,0V308c0-0.2-0.1-0.3-0.3-0.3h-17c-0.2,0-0.3,0.1-0.3,0.3v8.2c0,0.3,0.3,0,0,0h-16.4c-0.3,0,0,0.3,0,0V308
	c0-0.2-0.1-0.3-0.3-0.3h-22.7c-0.2,0-0.3,0.1-0.3,0.3v8.5V336c0,0.3,0.3,0,0,0h-8.2c-0.2,0-0.3,0.1-0.3,0.3v17
	c0,0.2,0.1,0.3,0.3,0.3h8.2c0.3,0,0-0.3,0,0V370c0,0.3,0.3,0,0,0h-8.2c-0.2,0-0.3,0.1-0.3,0.3v17c0,0.2,0.1,0.3,0.3,0.3h8.2
	c0.3,0,0-0.3,0,0v16.4c0,0.3,0.3,0,0,0h-8.2c-0.2,0-0.3,0.1-0.3,0.3v17c0,0.2,0.1,0.3,0.3,0.3h8.2c0.3,0,0-0.3,0,0v19.6v8.5
	C455.3,449.9,455.5,450,455.6,450"/>
<path class="st0" d="M455.6,294.9H478c0.3,0,0-0.3,0,0v8.2c0,0.2,0.1,0.3,0.3,0.3h17c0.2,0,0.3-0.1,0.3-0.3v-8.2c0-0.3-0.3,0,0,0
	H512c0.3,0,0-0.3,0,0v8.2c0,0.2,0.1,0.3,0.3,0.3h17c0.2,0,0.3-0.1,0.3-0.3v-8.2c0-0.3-0.3,0,0,0H546c0.3,0,0-0.3,0,0v8.2
	c0,0.2,0.1,0.3,0.3,0.3h17c0.2,0,0.3-0.1,0.3-0.3v-8.2c0-0.3-0.3,0,0,0h16.4c0.3,0,0-0.3,0,0v8.2c0,0.2,0.1,0.3,0.3,0.3h17
	c0.2,0,0.3-0.1,0.3-0.3v-8.2c0-0.3-0.3,0,0,0h16.4c0.3,0,0-0.3,0,0v8.2c0,0.2,0.1,0.3,0.3,0.3h17c0.2,0,0.3-0.1,0.3-0.3v-8.2
	c0-0.3-0.3,0,0,0h16.4c0.3,0,0-0.3,0,0v8.2c0,0.2,0.1,0.3,0.3,0.3h17c0.2,0,0.3-0.1,0.3-0.3v-8.2c0-0.3-0.3,0,0,0h16.4
	c0.3,0,0-0.3,0,0v8.2c0,0.2,0.1,0.3,0.3,0.3h17c0.2,0,0.3-0.1,0.3-0.3v-8.2c0-0.3-0.3,0,0,0h22.4c0.2,0,0.3-0.1,0.3-0.3v-22.4
	c0-0.3-0.3,0,0,0h8.2c0.2,0,0.3-0.1,0.3-0.3v-17c0-0.2-0.1-0.3-0.3-0.3h-8.2c-0.3,0,0,0.3,0,0v-16.4c0-0.3-0.3,0,0,0h8.2
	c0.2,0,0.3-0.1,0.3-0.3v-17c0-0.2-0.1-0.3-0.3-0.3h-8.2c-0.3,0,0,0.3,0,0v-16.4c0-0.3-0.3,0,0,0h8.2c0.2,0,0.3-0.1,0.3-0.3v-17
	c0-0.2-0.1-0.3-0.3-0.3h-8.2c-0.3,0,0,0.3,0,0v-16.4c0-0.3-0.3,0,0,0h8.2c0.2,0,0.3-0.1,0.3-0.3v-17c0-0.2-0.1-0.3-0.3-0.3h-8.2
	c-0.3,0,0,0.3,0,0v-16.4c0-0.3-0.3,0,0,0h8.2c0.2,0,0.3-0.1,0.3-0.3v-17c0-0.2-0.1-0.3-0.3-0.3h-8.2c-0.3,0,0,0.3,0,0v-16.4
	c0-0.3-0.3,0,0,0h8.2c0.2,0,0.3-0.1,0.3-0.3v-17c0-0.2-0.1-0.3-0.3-0.3h-8.2c-0.3,0,0,0.3,0,0V68.2c0-0.3-0.3,0,0,0h8.2
	c0.2,0,0.3-0.1,0.3-0.3v-17c0-0.2-0.1-0.3-0.3-0.3h-8.2c-0.3,0,0,0.3,0,0V28.2c0-0.2-0.1-0.3-0.3-0.3h-22.4c-0.3,0,0,0.3,0,0v-8.2
	c0-0.2-0.1-0.3-0.3-0.3h-17c-0.2,0-0.3,0.1-0.3,0.3v8.2c0,0.3,0.3,0,0,0h-16.4c-0.3,0,0,0.3,0,0v-8.2c0-0.2-0.1-0.3-0.3-0.3h-17
	c-0.2,0-0.3,0.1-0.3,0.3v8.2c0,0.3,0.3,0,0,0h-16.4c-0.3,0,0,0.3,0,0v-8.2c0-0.2-0.1-0.3-0.3-0.3h-17c-0.2,0-0.3,0.1-0.3,0.3v8.2
	c0,0.3,0.3,0,0,0h-16.4c-0.3,0,0,0.3,0,0v-8.2c0-0.2-0.1-0.3-0.3-0.3h-17c-0.2,0-0.3,0.1-0.3,0.3v8.2c0,0.3,0.3,0,0,0h-16.4
	c-0.3,0,0,0.3,0,0v-8.2c0-0.2-0.1-0.3-0.3-0.3h-17c-0.2,0-0.3,0.1-0.3,0.3v8.2c0,0.3,0.3,0,0,0h-16.4c-0.3,0,0,0.3,0,0v-8.2
	c0-0.2-0.1-0.3-0.3-0.3h-17c-0.2,0-0.3,0.1-0.3,0.3v8.2c0,0.3,0.3,0,0,0h-16.4c-0.3,0,0,0.3,0,0v-8.2c0-0.2-0.1-0.3-0.3-0.3h-17
	c-0.2,0-0.3,0.1-0.3,0.3v8.2c0,0.3,0.3,0,0,0h-22.4c-0.2,0-0.3,0.1-0.3,0.3v22.4c0,0.3,0.3,0,0,0h-8.2c-0.2,0-0.3,0.1-0.3,0.3v17
	c0,0.2,0.1,0.3,0.3,0.3h8.2c0.3,0,0-0.3,0,0v16.4c0,0.3,0.3,0,0,0h-8.2c-0.2,0-0.3,0.1-0.3,0.3v17c0,0.2,0.1,0.3,0.3,0.3h8.2
	c0.3,0,0-0.3,0,0v16.4c0,0.3,0.3,0,0,0h-8.2c-0.2,0-0.3,0.1-0.3,0.3v17c0,0.2,0.1,0.3,0.3,0.3h8.2c0.3,0,0-0.3,0,0v16.4
	c0,0.3,0.3,0,0,0h-8.2c-0.2,0-0.3,0.1-0.3,0.3v17c0,0.2,0.1,0.3,0.3,0.3h8.2c0.3,0,0-0.3,0,0v16.4c0,0.3,0.3,0,0,0h-8.2
	c-0.2,0-0.3,0.1-0.3,0.3v17c0,0.2,0.1,0.3,0.3,0.3h8.2c0.3,0,0-0.3,0,0v16.4c0,0.3,0.3,0,0,0h-8.2c-0.2,0-0.3,0.1-0.3,0.3v17
	c0,0.2,0.1,0.3,0.3,0.3h8.2c0.3,0,0-0.3,0,0v16.4c0,0.3,0.3,0,0,0h-8.2c-0.2,0-0.3,0.1-0.3,0.3v17c0,0.2,0.1,0.3,0.3,0.3h8.2
	c0.3,0,0-0.3,0,0v22.4C455.3,294.8,455.5,294.9,455.6,294.9"/>
<path class="st0" d="M442.3,307.7h-8.5h-22.7c-0.2,0-0.3,0.1-0.3,0.3v8.2h-16.4V308c0-0.2-0.1-0.3-0.3-0.3h-17
	c-0.2,0-0.3,0.1-0.3,0.3v8.2h-16.4V308c0-0.2-0.1-0.3-0.3-0.3h-17c-0.2,0-0.3,0.1-0.3,0.3v8.2h-16.4V308c0-0.2-0.1-0.3-0.3-0.3h-17
	c-0.2,0-0.3,0.1-0.3,0.3v8.2h-16.4V308c0-0.2-0.1-0.3-0.3-0.3h-17c-0.2,0-0.3,0.1-0.3,0.3v8.2h-16.4V308c0-0.2-0.1-0.3-0.3-0.3h-17
	c-0.2,0-0.3,0.1-0.3,0.3v8.2h-16.4V308c0-0.2-0.1-0.3-0.3-0.3h-17c-0.2,0-0.3,0.1-0.3,0.3v8.2h-16.4V308c0-0.2-0.1-0.3-0.3-0.3
	h-22.7h-8.5c-0.2,0-0.3,0.1-0.3,0.3v8.5v19.8c0,0.2,0.1,0.3,0.3,0.3h8.2V353h-8.2c-0.2,0-0.3,0.1-0.3,0.3v17c0,0.2,0.1,0.3,0.3,0.3
	h8.2V387h-8.2c-0.2,0-0.3,0.1-0.3,0.3v17c0,0.2,0.1,0.3,0.3,0.3h8.2v16.4h-8.2c-0.2,0-0.3,0.1-0.3,0.3v19.8v8.5
	c0,0.2,0.1,0.3,0.3,0.3h8.5H190c0.2,0,0.3-0.1,0.3-0.3v-8.2h16.4v8.2c0,0.2,0.1,0.3,0.3,0.3h17c0.2,0,0.3-0.1,0.3-0.3v-8.2h16.4v8.2
	c0,0.2,0.1,0.3,0.3,0.3h17c0.2,0,0.3-0.1,0.3-0.3v-8.2h16.4v8.2c0,0.2,0.1,0.3,0.3,0.3h17c0.2,0,0.3-0.1,0.3-0.3v-8.2h2.6v-5.7
	c0-3.1,2.5-5.7,5.7-5.7c3.1,0,5.7,2.5,5.7,5.7v5.7h2.6v8.2c0,0.2,0.1,0.3,0.3,0.3h17c0.2,0,0.3-0.1,0.3-0.3v-8.2h16.4v8.2
	c0,0.2,0.1,0.3,0.3,0.3h17c0.2,0,0.3-0.1,0.3-0.3v-8.2h16.4v8.2c0,0.2,0.1,0.3,0.3,0.3h17c0.2,0,0.3-0.1,0.3-0.3v-8.2h16.4v8.2
	c0,0.2,0.1,0.3,0.3,0.3h22.7h8.5c0.2,0,0.3-0.1,0.3-0.3v-8.5v-19.8c0-0.2-0.1-0.3-0.3-0.3h-8.2v-16.4h8.2c0.2,0,0.3-0.1,0.3-0.3v-17
	c0-0.2-0.1-0.3-0.3-0.3h-8.2v-16.4h8.2c0.2,0,0.3-0.1,0.3-0.3v-17c0-0.2-0.1-0.3-0.3-0.3h-8.2v-16.4h8.2c0.2,0,0.3-0.1,0.3-0.3
	v-19.8V308C442.6,307.8,442.5,307.7,442.3,307.7z"/>
<g>
	<path class="st0" d="M359.8,338.4h17.6c-0.3,0,0,0.3,0,0v-8.2c0-0.2-0.1-0.3-0.3-0.3h-17c-0.2,0-0.3,0.1-0.3,0.3V338.4
		C359.8,338.7,360.1,338.4,359.8,338.4z"/>
	<path class="st0" d="M325.8,338.4h17.6c-0.3,0,0,0.3,0,0v-8.2c0-0.2-0.1-0.3-0.3-0.3h-17c-0.2,0-0.3,0.1-0.3,0.3V338.4
		C325.8,338.7,326.1,338.4,325.8,338.4z"/>
	<path class="st0" d="M393.8,338.4h17.6c-0.3,0,0,0.3,0,0v-8.2c0-0.2-0.1-0.3-0.3-0.3h-17c-0.2,0-0.3,0.1-0.3,0.3V338.4
		C393.8,338.7,394.1,338.4,393.8,338.4z"/>
	<path class="st0" d="M291.8,338.4h17.6c-0.3,0,0,0.3,0,0v-8.2c0-0.2-0.1-0.3-0.3-0.3h-17c-0.2,0-0.3,0.1-0.3,0.3V338.4
		C291.8,338.7,292.1,338.4,291.8,338.4z"/>
	<path class="st0" d="M257.8,338.4h17.6c-0.3,0,0,0.3,0,0v-8.2c0-0.2-0.1-0.3-0.3-0.3h-17c-0.2,0-0.3,0.1-0.3,0.3V338.4
		C257.8,338.7,258,338.4,257.8,338.4z"/>
	<path class="st0" d="M223.7,338.4h17.6c-0.3,0,0,0.3,0,0v-8.2c0-0.2-0.1-0.3-0.3-0.3h-17c-0.2,0-0.3,0.1-0.3,0.3V338.4
		C223.7,338.7,224,338.4,223.7,338.4z"/>
	<path class="st0" d="M189.7,338.4h17.6c-0.3,0,0,0.3,0,0v-8.2c0-0.2-0.1-0.3-0.3-0.3h-17c-0.2,0-0.3,0.1-0.3,0.3V338.4
		C189.7,338.7,190,338.4,189.7,338.4z"/>
</g>
<g>
	<path class="st0" d="M359.8,485h17.6c-0.3,0,0,0.3,0,0v-8.2c0-0.2-0.1-0.3-0.3-0.3h-17c-0.2,0-0.3,0.1-0.3,0.3V485
		C359.8,485.3,360.1,485,359.8,485z"/>
	<path class="st0" d="M325.8,485h17.6c-0.3,0,0,0.3,0,0v-8.2c0-0.2-0.1-0.3-0.3-0.3h-17c-0.2,0-0.3,0.1-0.3,0.3V485
		C325.8,485.3,326.1,485,325.8,485z"/>
	<path class="st0" d="M393.8,485h17.6c-0.3,0,0,0.3,0,0v-8.2c0-0.2-0.1-0.3-0.3-0.3h-17c-0.2,0-0.3,0.1-0.3,0.3V485
		C393.8,485.3,394.1,485,393.8,485z"/>
	<path class="st0" d="M291.8,485h17.6c-0.3,0,0,0.3,0,0v-8.2c0-0.2-0.1-0.3-0.3-0.3h-17c-0.2,0-0.3,0.1-0.3,0.3V485
		C291.8,485.3,292.1,485,291.8,485z"/>
	<path class="st0" d="M257.8,485h17.6c-0.3,0,0,0.3,0,0v-8.2c0-0.2-0.1-0.3-0.3-0.3h-17c-0.2,0-0.3,0.1-0.3,0.3V485
		C257.8,485.3,258,485,257.8,485z"/>
	<path class="st0" d="M223.7,485h17.6c-0.3,0,0,0.3,0,0v-8.2c0-0.2-0.1-0.3-0.3-0.3h-17c-0.2,0-0.3,0.1-0.3,0.3V485
		C223.7,485.3,224,485,223.7,485z"/>
	<path class="st0" d="M189.7,485h17.6c-0.3,0,0,0.3,0,0v-8.2c0-0.2-0.1-0.3-0.3-0.3h-17c-0.2,0-0.3,0.1-0.3,0.3V485
		C189.7,485.3,190,485,189.7,485z"/>
</g>
<path class="st0" d="M167.3,294.9h22.4c0.3,0,0-0.3,0,0v8.2c0,0.2,0.1,0.3,0.3,0.3h17c0.2,0,0.3-0.1,0.3-0.3v-8.2c0-0.3-0.3,0,0,0
	h16.4c0.3,0,0-0.3,0,0v8.2c0,0.2,0.1,0.3,0.3,0.3h17c0.2,0,0.3-0.1,0.3-0.3v-8.2c0-0.3-0.3,0,0,0h16.4c0.3,0,0-0.3,0,0v8.2
	c0,0.2,0.1,0.3,0.3,0.3h17c0.2,0,0.3-0.1,0.3-0.3v-8.2c0-0.3-0.3,0,0,0h16.4c0.3,0,0-0.3,0,0v8.2c0,0.2,0.1,0.3,0.3,0.3h17
	c0.2,0,0.3-0.1,0.3-0.3v-8.2c0-0.3-0.3,0,0,0h16.4c0.3,0,0-0.3,0,0v8.2c0,0.2,0.1,0.3,0.3,0.3h17c0.2,0,0.3-0.1,0.3-0.3v-8.2
	c0-0.3-0.3,0,0,0h16.4c0.3,0,0-0.3,0,0v8.2c0,0.2,0.1,0.3,0.3,0.3h17c0.2,0,0.3-0.1,0.3-0.3v-8.2c0-0.3-0.3,0,0,0h16.4
	c0.3,0,0-0.3,0,0v8.2c0,0.2,0.1,0.3,0.3,0.3h17c0.2,0,0.3-0.1,0.3-0.3v-8.2c0-0.3-0.3,0,0,0h22.4c0.2,0,0.3-0.1,0.3-0.3v-22.4
	c0-0.3-0.3,0,0,0h8.2c0.2,0,0.3-0.1,0.3-0.3v-17c0-0.2-0.1-0.3-0.3-0.3h-8.2c-0.3,0,0,0.3,0,0v-16.4c0-0.3-0.3,0,0,0h8.2
	c0.2,0,0.3-0.1,0.3-0.3v-17c0-0.2-0.1-0.3-0.3-0.3h-8.2c-0.3,0,0,0.3,0,0v-16.4c0-0.3-0.3,0,0,0h8.2c0.2,0,0.3-0.1,0.3-0.3v-17
	c0-0.2-0.1-0.3-0.3-0.3h-8.2c-0.3,0,0,0.3,0,0v-16.4c0-0.3-0.3,0,0,0h8.2c0.2,0,0.3-0.1,0.3-0.3v-17c0-0.2-0.1-0.3-0.3-0.3h-8.2
	c-0.3,0,0,0.3,0,0v-16.4c0-0.3-0.3,0,0,0h8.2c0.2,0,0.3-0.1,0.3-0.3v-17c0-0.2-0.1-0.3-0.3-0.3h-8.2c-0.3,0,0,0.3,0,0v-16.4
	c0-0.3-0.3,0,0,0h8.2c0.2,0,0.3-0.1,0.3-0.3v-17c0-0.2-0.1-0.3-0.3-0.3h-8.2c-0.3,0,0,0.3,0,0V68.2c0-0.3-0.3,0,0,0h8.2
	c0.2,0,0.3-0.1,0.3-0.3v-17c0-0.2-0.1-0.3-0.3-0.3h-8.2c-0.3,0,0,0.3,0,0V28.2c0-0.2-0.1-0.3-0.3-0.3h-22.4c-0.3,0,0,0.3,0,0v-8.2
	c0-0.2-0.1-0.3-0.3-0.3h-17c-0.2,0-0.3,0.1-0.3,0.3v8.2c0,0.3,0.3,0,0,0h-16.4c-0.3,0,0,0.3,0,0v-8.2c0-0.2-0.1-0.3-0.3-0.3h-17
	c-0.2,0-0.3,0.1-0.3,0.3v8.2c0,0.3,0.3,0,0,0h-16.4c-0.3,0,0,0.3,0,0v-8.2c0-0.2-0.1-0.3-0.3-0.3h-17c-0.2,0-0.3,0.1-0.3,0.3v8.2
	c0,0.3,0.3,0,0,0h-16.4c-0.3,0,0,0.3,0,0v-8.2c0-0.2-0.1-0.3-0.3-0.3h-17c-0.2,0-0.3,0.1-0.3,0.3v8.2c0,0.3,0.3,0,0,0h-16.4
	c-0.3,0,0,0.3,0,0v-8.2c0-0.2-0.1-0.3-0.3-0.3h-17c-0.2,0-0.3,0.1-0.3,0.3v8.2c0,0.3,0.3,0,0,0h-16.4c-0.3,0,0,0.3,0,0v-8.2
	c0-0.2-0.1-0.3-0.3-0.3h-17c-0.2,0-0.3,0.1-0.3,0.3v8.2c0,0.3,0.3,0,0,0h-16.4c-0.3,0,0,0.3,0,0v-8.2c0-0.2-0.1-0.3-0.3-0.3h-17
	c-0.2,0-0.3,0.1-0.3,0.3v8.2c0,0.3,0.3,0,0,0h-22.4c-0.2,0-0.3,0.1-0.3,0.3v22.4c0,0.3,0.3,0,0,0h-8.2c-0.2,0-0.3,0.1-0.3,0.3v17
	c0,0.2,0.1,0.3,0.3,0.3h8.2c0.3,0,0-0.3,0,0v16.4c0,0.3,0.3,0,0,0h-8.2c-0.2,0-0.3,0.1-0.3,0.3v17c0,0.2,0.1,0.3,0.3,0.3h8.2
	c0.3,0,0-0.3,0,0v16.4c0,0.3,0.3,0,0,0h-8.2c-0.2,0-0.3,0.1-0.3,0.3v17c0,0.2,0.1,0.3,0.3,0.3h8.2c0.3,0,0-0.3,0,0v16.4
	c0,0.3,0.3,0,0,0h-8.2c-0.2,0-0.3,0.1-0.3,0.3v17c0,0.2,0.1,0.3,0.3,0.3h8.2c0.3,0,0-0.3,0,0v16.4c0,0.3,0.3,0,0,0h-8.2
	c-0.2,0-0.3,0.1-0.3,0.3v17c0,0.2,0.1,0.3,0.3,0.3h8.2c0.3,0,0-0.3,0,0v16.4c0,0.3,0.3,0,0,0h-8.2c-0.2,0-0.3,0.1-0.3,0.3v17
	c0,0.2,0.1,0.3,0.3,0.3h8.2c0.3,0,0-0.3,0,0v16.4c0,0.3,0.3,0,0,0h-8.2c-0.2,0-0.3,0.1-0.3,0.3v17c0,0.2,0.1,0.3,0.3,0.3h8.2
	c0.3,0,0-0.3,0,0v22.4C167.1,294.8,167.2,294.9,167.3,294.9"/>
<circle class="st0" cx="300.6" cy="70.6" r="2.8"/>
<circle class="st0" cx="300.6" cy="93.6" r="2.8"/>
<circle class="st0" cx="300.6" cy="115.2" r="2.8"/>
<circle class="st0" cx="300.6" cy="138.2" r="2.8"/>
<circle class="st0" cx="284.2" cy="145" r="2.8"/>
<circle class="st0" cx="277.4" cy="161.4" r="2.8"/>
<circle class="st0" cx="284.2" cy="177.8" r="2.8"/>
<circle class="st0" cx="300.6" cy="184.6" r="2.8"/>
<circle class="st0" cx="316.9" cy="177.8" r="2.8"/>
<circle class="st0" cx="323.7" cy="161.4" r="2.8"/>
<circle class="st0" cx="316.9" cy="145" r="2.8"/>
<circle class="st0" cx="300.6" cy="161.4" r="2.8"/>
<circle class="st0" cx="280.5" cy="119.7" r="2.8"/>
<circle class="st0" cx="264.4" cy="132.6" r="2.8"/>
<circle class="st0" cx="255.5" cy="151.1" r="2.8"/>
<circle class="st0" cx="255.5" cy="171.7" r="2.8"/>
<circle class="st0" cx="264.4" cy="190.2" r="2.8"/>
<circle class="st0" cx="280.5" cy="203.1" r="2.8"/>
<circle class="st0" cx="300.6" cy="207.7" r="2.8"/>
<circle class="st0" cx="320.6" cy="203.1" r="2.8"/>
<circle class="st0" cx="336.7" cy="190.2" r="2.8"/>
<circle class="st0" cx="345.7" cy="171.7" r="2.8"/>
<circle class="st0" cx="345.7" cy="151.1" r="2.8"/>
<circle class="st0" cx="336.7" cy="132.6" r="2.8"/>
<circle class="st0" cx="320.6" cy="119.7" r="2.8"/>
<circle class="st0" cx="277.4" cy="97.7" r="2.8"/>
<circle class="st0" cx="257" cy="109.5" r="2.8"/>
<circle class="st0" cx="241.9" cy="127.5" r="2.8"/>
<circle class="st0" cx="233.8" cy="149.6" r="2.8"/>
<circle class="st0" cx="233.8" cy="173.2" r="2.8"/>
<circle class="st0" cx="241.9" cy="195.3" r="2.8"/>
<circle class="st0" cx="257" cy="213.3" r="2.8"/>
<circle class="st0" cx="277.4" cy="225.1" r="2.8"/>
<circle class="st0" cx="300.6" cy="229.2" r="2.8"/>
<circle class="st0" cx="323.7" cy="225.1" r="2.8"/>
<circle class="st0" cx="344.1" cy="213.3" r="2.8"/>
<circle class="st0" cx="359.3" cy="195.3" r="2.8"/>
<circle class="st0" cx="367.3" cy="173.2" r="2.8"/>
<circle class="st0" cx="367.3" cy="149.6" r="2.8"/>
<circle class="st0" cx="359.3" cy="127.5" r="2.8"/>
<circle class="st0" cx="344.1" cy="109.5" r="2.8"/>
<circle class="st0" cx="323.7" cy="97.7" r="2.8"/>
<circle class="st0" cx="272.5" cy="75.1" r="2.8"/>
<circle class="st0" cx="247.2" cy="88" r="2.8"/>
<circle class="st0" cx="227.1" cy="108.1" r="2.8"/>
<circle class="st0" cx="214.2" cy="133.4" r="2.8"/>
<circle class="st0" cx="209.8" cy="161.4" r="2.8"/>
<circle class="st0" cx="214.2" cy="189.5" r="2.8"/>
<circle class="st0" cx="227.1" cy="214.8" r="2.8"/>
<circle class="st0" cx="247.2" cy="234.9" r="2.8"/>
<circle class="st0" cx="272.5" cy="247.7" r="2.8"/>
<circle class="st0" cx="300.6" cy="252.2" r="2.8"/>
<circle class="st0" cx="328.6" cy="247.7" r="2.8"/>
<circle class="st0" cx="353.9" cy="234.9" r="2.8"/>
<circle class="st0" cx="374" cy="214.8" r="2.8"/>
<circle class="st0" cx="386.9" cy="189.5" r="2.8"/>
<circle class="st0" cx="391.3" cy="161.4" r="2.8"/>
<circle class="st0" cx="386.9" cy="133.4" r="2.8"/>
<circle class="st0" cx="374" cy="108.1" r="2.8"/>
<circle class="st0" cx="353.9" cy="88" r="2.8"/>
<circle class="st0" cx="328.6" cy="75.1" r="2.8"/>
<path class="st0" d="M990,27.9h-16.4v-8.2c0-0.2-0.1-0.3-0.3-0.3h-17c-0.2,0-0.3,0.1-0.3,0.3v8.2h-16.4v-8.2c0-0.2-0.1-0.3-0.3-0.3
	h-17c-0.2,0-0.3,0.1-0.3,0.3v8.2h-16.4v-8.2c0-0.2-0.1-0.3-0.3-0.3h-17c-0.2,0-0.3,0.1-0.3,0.3v8.2h-16.4v-8.2
	c0-0.2-0.1-0.3-0.3-0.3h-17c-0.2,0-0.3,0.1-0.3,0.3v8.2h-16.4v-8.2c0-0.2-0.1-0.3-0.3-0.3h-17c-0.2,0-0.3,0.1-0.3,0.3v8.2h-16.4
	v-8.2c0-0.2-0.1-0.3-0.3-0.3h-17c-0.2,0-0.3,0.1-0.3,0.3v8.2h-16.4v-8.2c0-0.2-0.1-0.3-0.3-0.3h-17c-0.2,0-0.3,0.1-0.3,0.3v8.2
	h-16.4c-0.2,0-0.3,0.1-0.3,0.3v266.5c0,0.2,0.1,0.3,0.3,0.3h16.4v8.2c0,0.2,0.1,0.3,0.3,0.3h17c0.2,0,0.3-0.1,0.3-0.3v-8.2h16.4v8.2
	c0,0.2,0.1,0.3,0.3,0.3h17c0.2,0,0.3-0.1,0.3-0.3v-8.2h16.4v8.2c0,0.2,0.1,0.3,0.3,0.3h17c0.2,0,0.3-0.1,0.3-0.3v-8.2h16.4v8.2
	c0,0.2,0.1,0.3,0.3,0.3h17c0.2,0,0.3-0.1,0.3-0.3v-8.2h16.4v8.2c0,0.2,0.1,0.3,0.3,0.3h17c0.2,0,0.3-0.1,0.3-0.3v-8.2h16.4v8.2
	c0,0.2,0.1,0.3,0.3,0.3h17c0.2,0,0.3-0.1,0.3-0.3v-8.2H956v8.2c0,0.2,0.1,0.3,0.3,0.3h17c0.2,0,0.3-0.1,0.3-0.3v-8.2H990
	c0.2,0,0.3-0.1,0.3-0.3V28.2C990.2,28,990.1,27.9,990,27.9z M762,57.9h-18.7V42.1H762V57.9z M862.7,261.8
	c-55.4,0-100.3-44.9-100.3-100.3c0-55.4,44.9-100.3,100.3-100.3S963,106,963,161.4C963,216.8,918.1,261.8,862.7,261.8z"/>
</svg>
